<?xml version="1.0" encoding="UTF-8" standalone="no"?>
<svg xmlns:dc="http://purl.org/dc/elements/1.1/" xmlns:cc="http://web.resource.org/cc/" xmlns:rdf="http://www.w3.org/1999/02/22-rdf-syntax-ns#" xmlns:svg="http://www.w3.org/2000/svg" xmlns="http://www.w3.org/2000/svg" xmlns:sodipodi="http://sodipodi.sourceforge.net/DTD/sodipodi-0.dtd" xmlns:inkscape="http://www.inkscape.org/namespaces/inkscape" height="237.35207" version="1.0" viewBox="0 0 785 1111" width="258.19125" id="svg14776" sodipodi:version="0.32" inkscape:version="0.44.1" sodipodi:docname="untitled0.svg" sodipodi:docbase="/home/ralf/Desktop/bkchem-0.11.4">
  <metadata id="metadata15025">
    <rdf:RDF>
      <cc:Work rdf:about="">
        <dc:format>image/svg+xml</dc:format>
        <dc:type rdf:resource="http://purl.org/dc/dcmitype/StillImage"/>
      </cc:Work>
    </rdf:RDF>
  </metadata>
  <defs id="defs15023"/>
  <sodipodi:namedview inkscape:window-height="571" inkscape:window-width="852" inkscape:pageshadow="2" inkscape:pageopacity="0.0" guidetolerance="10.0" gridtolerance="10.0" objecttolerance="10.0" borderopacity="1.0" bordercolor="#666666" pagecolor="#ffffff" id="base" inkscape:zoom="1.6094235" inkscape:cx="129.09563" inkscape:cy="118.67603" inkscape:window-x="376" inkscape:window-y="416" inkscape:current-layer="svg14776"/>
  <g id="g15158">
    <g transform="matrix(4.10675, 0, 0, 4.10675, -1272.81, -1175.38)" id="g14780" style="font-size: 15px; stroke: black; stroke-width: 1; stroke-linecap: round; font-family: Helvetica;">
      <line x1="397.35376" x2="401.45721" y1="407.97836" y2="405.12149" id="line14782"/>
      <line x1="394.90546" x2="399.00891" y1="404.4617" y2="401.60486" id="line14784"/>
      <line x1="392.45712" x2="396.56058" y1="400.94507" y2="398.0882" id="line14786"/>
      <line x1="390.00882" x2="394.11227" y1="397.42844" y2="394.57156" id="line14788"/>
    </g>
    <g transform="matrix(4.10675, 0, 0, 4.10675, -1272.81, -1175.38)" id="g14790" style="font-size: 15px; stroke: black; stroke-width: 1; stroke-linecap: round; font-family: Helvetica;">
      <line x1="483.05133" x2="478.26385" y1="411.5614" y2="419.89157" id="line14792"/>
      <line x1="477.84924" x2="473.0618" y1="408.57172" y2="416.90186" id="line14794"/>
    </g>
    <g transform="matrix(4.10675, 0, 0, 4.10675, -1272.81, -1175.38)" id="g14796" style="font-size: 15px; stroke: black; stroke-width: 1; stroke-linecap: round; font-family: Helvetica;">
      <line x1="519.74854" x2="542.43738" y1="432.7554" y2="419.65601" id="line14798"/>
    </g>
    <g transform="matrix(4.10675, 0, 0, 4.10675, -1272.81, -1175.38)" id="g14800" style="font-size: 15px; stroke: black; stroke-width: 1; stroke-linecap: round; font-family: Helvetica;">
      <line x1="428.05264" x2="441.15204" y1="364.68884" y2="342" id="line14802"/>
    </g>
    <g transform="matrix(4.10675, 0, 0, 4.10675, -1272.81, -1175.38)" id="g14804" style="font-size: 15px; stroke: black; stroke-width: 1; stroke-linecap: round; font-family: Helvetica;">
      <line x1="270.85965" x2="283.95908" y1="410.06656" y2="432.7554" id="line14806"/>
    </g>
    <g transform="matrix(4.10675, 0, 0, 4.10675, -1272.81, -1175.38)" id="g14808" style="font-size: 15px; stroke: black; stroke-width: 1; stroke-linecap: round; font-family: Helvetica;">
      <line x1="480.45029" x2="495.10211" y1="410.06656" y2="410.06656" id="line14810"/>
    </g>
    <g transform="matrix(4.10675, 0, 0, 4.10675, -1272.81, -1175.38)" id="g14812" style="font-size: 15px; stroke: black; stroke-width: 1; stroke-linecap: round; font-family: Helvetica;">
      <line x1="310.1579" x2="323.25732" y1="432.7554" y2="410.06656" id="line14814"/>
    </g>
    <g transform="matrix(4.10675, 0, 0, 4.10675, -1272.81, -1175.38)" id="g14816" style="font-size: 15px; stroke: black; stroke-width: 1; stroke-linecap: round; font-family: Helvetica;">
      <line x1="388.75439" x2="401.85379" y1="432.7554" y2="410.06656" id="line14818"/>
    </g>
    <g transform="matrix(4.10675, 0, 0, 4.10675, -1272.81, -1175.38)" id="g14820" style="font-size: 15px; stroke: black; stroke-width: 1; stroke-linecap: round; font-family: Helvetica;">
      <line x1="283.95908" x2="310.1579" y1="432.7554" y2="432.7554" id="line14822"/>
      <line x1="287.23392" x2="306.88303" y1="424.7554" y2="424.7554" id="line14824"/>
    </g>
    <g transform="matrix(4.10675, 0, 0, 4.10675, -1272.81, -1175.38)" id="g14826" style="font-size: 15px; stroke: black; stroke-width: 1; stroke-linecap: round; font-family: Helvetica;">
      <line x1="467.35089" x2="449.67108" y1="387.37772" y2="387.37772" id="line14828"/>
    </g>
    <g transform="matrix(4.10675, 0, 0, 4.10675, -1272.81, -1175.38)" id="g14830" style="font-size: 15px; stroke: black; stroke-width: 1; stroke-linecap: round; font-family: Helvetica;">
      <line x1="510.02631" x2="519.74854" y1="415.91602" y2="432.7554" id="line14832"/>
    </g>
    <g transform="matrix(4.10675, 0, 0, 4.10675, -1272.81, -1175.38)" id="g14834" style="font-size: 15px; stroke: black; stroke-width: 1; stroke-linecap: round; font-family: Helvetica;">
      <line x1="388.75439" x2="397.49149" y1="478.13312" y2="463" id="line14836"/>
    </g>
    <g transform="matrix(4.10675, 0, 0, 4.10675, -1272.81, -1175.38)" id="g14838" style="font-size: 15px; stroke: black; stroke-width: 1; stroke-linecap: round; font-family: Helvetica;">
      <line x1="467.35089" x2="441.15204" y1="342" y2="342" id="line14840"/>
    </g>
    <g transform="matrix(4.10675, 0, 0, 4.10675, -1272.81, -1175.38)" id="g14842" style="font-size: 15px; stroke: black; stroke-width: 1; stroke-linecap: round; font-family: Helvetica;">
      <line x1="519.74854" x2="532.84796" y1="432.7554" y2="455.44427" id="line14844"/>
    </g>
    <g transform="matrix(4.10675, 0, 0, 4.10675, -1272.81, -1175.38)" id="g14846" style="font-size: 15px; stroke: black; stroke-width: 1; stroke-linecap: round; font-family: Helvetica;">
      <line x1="283.95908" x2="270.85965" y1="387.37772" y2="410.06656" id="line14848"/>
      <line x1="289.24985" x2="279.42529" y1="394.21381" y2="411.23044" id="line14850"/>
    </g>
    <g transform="matrix(4.10675, 0, 0, 4.10675, -1272.81, -1175.38)" id="g14852" style="font-size: 15px; stroke: black; stroke-width: 1; stroke-linecap: round; font-family: Helvetica;">
      <line x1="437.72806" x2="428.05264" y1="381.4472" y2="364.68884" id="line14854"/>
    </g>
    <g transform="matrix(4.10675, 0, 0, 4.10675, -1272.81, -1175.38)" id="g14856" style="font-size: 15px; stroke: black; stroke-width: 1; stroke-linecap: round; font-family: Helvetica;">
      <line x1="323.25732" x2="310.1579" y1="410.06656" y2="387.37772" id="line14858"/>
      <line x1="314.69168" x2="304.86713" y1="411.23044" y2="394.21381" id="line14860"/>
    </g>
    <g transform="matrix(4.10675, 0, 0, 4.10675, -1272.81, -1175.38)" id="g14862" style="font-size: 15px; stroke: black; stroke-width: 1; stroke-linecap: round; font-family: Helvetica;">
      <line x1="441.15204" x2="428.05264" y1="523.5108" y2="500.82196" id="line14864"/>
    </g>
    <g transform="matrix(4.10675, 0, 0, 4.10675, -1272.81, -1175.38)" id="g14866" style="font-size: 15px; stroke: black; stroke-width: 1; stroke-linecap: round; font-family: Helvetica;">
      <line x1="428.05264" x2="401.85379" y1="500.82196" y2="500.82196" id="line14868"/>
      <line x1="424.77777" x2="405.12866" y1="508.82196" y2="508.82196" id="line14870"/>
    </g>
    <g transform="matrix(4.10675, 0, 0, 4.10675, -1272.81, -1175.38)" id="g14872" style="font-size: 15px; stroke: black; stroke-width: 1; stroke-linecap: round; font-family: Helvetica;">
      <line x1="441.15204" x2="428.05264" y1="478.13312" y2="500.82196" id="line14874"/>
    </g>
    <g transform="matrix(4.10675, 0, 0, 4.10675, -1272.81, -1175.38)" id="g14876" style="font-size: 15px; stroke: black; stroke-width: 1; stroke-linecap: round; font-family: Helvetica;">
      <line x1="441.15204" x2="428.05264" y1="342" y2="319.31116" id="line14878"/>
    </g>
    <g transform="matrix(4.10675, 0, 0, 4.10675, -1272.81, -1175.38)" id="g14880" style="font-size: 15px; stroke: black; stroke-width: 1; stroke-linecap: round; font-family: Helvetica;">
      <polygon points="467.784,387.128 482.615,408.817 478.285,411.317 466.918,387.628 467.784,387.128" id="polygon14882" style="fill: black; stroke: black;"/>
    </g>
    <g transform="matrix(4.10675, 0, 0, 4.10675, -1272.81, -1175.38)" id="g14884" style="font-size: 15px; stroke: black; stroke-width: 1; stroke-linecap: round; font-family: Helvetica;">
      <line x1="428.05264" x2="441.15204" y1="546.19965" y2="523.5108" id="line14886"/>
      <line x1="422.76184" x2="432.58643" y1="539.36359" y2="522.34692" id="line14888"/>
    </g>
    <g transform="matrix(4.10675, 0, 0, 4.10675, -1272.81, -1175.38)" id="g14896" style="font-size: 15px; stroke: black; stroke-width: 1; stroke-linecap: round; font-family: Helvetica;">
      <line x1="441.15204" x2="460" y1="523.5108" y2="523.5108" id="line14898"/>
    </g>
    <g transform="matrix(4.10675, 0, 0, 4.10675, -1272.81, -1175.38)" id="g14900" style="font-size: 15px; stroke: black; stroke-width: 1; stroke-linecap: round; font-family: Helvetica;">
      <line x1="519.74854" x2="497.05969" y1="432.7554" y2="445.85483" id="line14902"/>
    </g>
    <g transform="matrix(4.10675, 0, 0, 4.10675, -1272.81, -1175.38)" id="g14904" style="font-size: 15px; stroke: black; stroke-width: 1; stroke-linecap: round; font-family: Helvetica;">
      <line x1="480.45029" x2="467.35089" y1="364.68884" y2="387.37772" id="line14906"/>
    </g>
    <g transform="matrix(4.10675, 0, 0, 4.10675, -1272.81, -1175.38)" id="g14908" style="font-size: 15px; stroke: black; stroke-width: 1; stroke-linecap: round; font-family: Helvetica;">
      <line x1="362.55554" x2="355.19122" y1="432.7554" y2="420" id="line14910"/>
    </g>
    <g transform="matrix(4.10675, 0, 0, 4.10675, -1272.81, -1175.38)" id="g14912" style="font-size: 15px; stroke: black; stroke-width: 1; stroke-linecap: round; font-family: Helvetica;">
      <line x1="441.15204" x2="467.35089" y1="296.62228" y2="296.62228" id="line14914"/>
    </g>
    <g transform="matrix(4.10675, 0, 0, 4.10675, -1272.81, -1175.38)" id="g14916" style="font-size: 15px; stroke: black; stroke-width: 1; stroke-linecap: round; font-family: Helvetica;">
      <line x1="437.51721" x2="437.29453" y1="344.66452" y2="339.66946" id="line14918"/>
      <line x1="433.77103" x2="433.54834" y1="344.83151" y2="339.83649" id="line14920"/>
      <line x1="430.02484" x2="429.80215" y1="344.9985" y2="340.00348" id="line14922"/>
      <line x1="426.27866" x2="426.056" y1="345.1655" y2="340.17047" id="line14924"/>
    </g>
    <g transform="matrix(4.10675, 0, 0, 4.10675, -1272.81, -1175.38)" id="g14926" style="font-size: 15px; stroke: black; stroke-width: 1; stroke-linecap: round; font-family: Helvetica;">
      <line x1="467.35089" x2="480.45029" y1="296.62228" y2="319.31116" id="line14928"/>
    </g>
    <g transform="matrix(4.10675, 0, 0, 4.10675, -1272.81, -1175.38)" id="g14930" style="font-size: 15px; stroke: black; stroke-width: 1; stroke-linecap: round; font-family: Helvetica;">
      <line x1="401.85379" x2="388.75439" y1="500.82196" y2="478.13312" id="line14932"/>
    </g>
    <g transform="matrix(4.10675, 0, 0, 4.10675, -1272.81, -1175.38)" id="g14934" style="font-size: 15px; stroke: black; stroke-width: 1; stroke-linecap: round; font-family: Helvetica;">
      <line x1="428.05264" x2="441.15204" y1="319.31116" y2="296.62228" id="line14936"/>
    </g>
    <g transform="matrix(4.10675, 0, 0, 4.10675, -1272.81, -1175.38)" id="g14938" style="font-size: 15px; stroke: black; stroke-width: 1; stroke-linecap: round; font-family: Helvetica;">
      <polygon points="399.72092,446.75 395.39078,449.25 388.75439,432.754 399.72092,446.75" style="fill: black; stroke: black;"/>
    </g>
    <g transform="matrix(4.10675, 0, 0, 4.10675, -1272.81, -1175.38)" id="g14950" style="font-size: 15px; stroke: black; stroke-width: 1; stroke-linecap: round; font-family: Helvetica;">
      <line x1="480.45029" x2="467.35089" y1="319.31116" y2="342" id="line14952"/>
    </g>
    <g transform="matrix(4.10675, 0, 0, 4.10675, -1272.81, -1175.38)" id="g14954" style="font-size: 15px; stroke: black; stroke-width: 1; stroke-linecap: round; font-family: Helvetica;">
      <line x1="343" x2="323.25732" y1="410.06656" y2="410.06656" id="line14956"/>
    </g>
    <g transform="matrix(4.10675, 0, 0, 4.10675, -1272.81, -1175.38)" id="g14958" style="font-size: 15px; stroke: black; stroke-width: 1; stroke-linecap: round; font-family: Helvetica;">
      <line x1="401.85379" x2="428.05264" y1="546.19965" y2="546.19965" id="line14960"/>
    </g>
    <g transform="matrix(4.10675, 0, 0, 4.10675, -1272.81, -1175.38)" id="g14962" style="font-size: 15px; stroke: black; stroke-width: 1; stroke-linecap: round; font-family: Helvetica;">
      <line x1="388.75439" x2="401.85379" y1="523.5108" y2="546.19965" id="line14964"/>
      <line x1="397.32001" x2="407.14459" y1="522.34692" y2="539.36359" id="line14966"/>
    </g>
    <g transform="matrix(4.10675, 0, 0, 4.10675, -1272.81, -1175.38)" id="g14968" style="font-size: 15px; stroke: black; stroke-width: 1; stroke-linecap: round; font-family: Helvetica;">
      <line x1="428.05264" x2="435.59662" y1="410.06656" y2="397" id="line14970"/>
    </g>
    <g transform="matrix(4.10675, 0, 0, 4.10675, -1272.81, -1175.38)" id="g14972" style="font-size: 15px; stroke: black; stroke-width: 1; stroke-linecap: round; font-family: Helvetica;">
      <line x1="401.85379" x2="388.75439" y1="500.82196" y2="523.5108" id="line14974"/>
    </g>
    <g transform="matrix(4.10675, 0, 0, 4.10675, -1272.81, -1175.38)" id="g14976" style="font-size: 15px; stroke: black; stroke-width: 1; stroke-linecap: round; font-family: Helvetica;">
      <line x1="401.85379" x2="428.05264" y1="410.06656" y2="410.06656" id="line14978"/>
    </g>
    <g transform="matrix(4.10675, 0, 0, 4.10675, -1272.81, -1175.38)" id="g14980" style="font-size: 15px; stroke: black; stroke-width: 1; stroke-linecap: round; font-family: Helvetica;">
      <line x1="388.75439" x2="370" y1="475.13312" y2="475.13312" id="line14982"/>
      <line x1="388.75439" x2="370" y1="481.13312" y2="481.13312" id="line14984"/>
    </g>
    <g transform="matrix(4.10675, 0, 0, 4.10675, -1272.81, -1175.38)" id="g14986" style="font-size: 15px; stroke: black; stroke-width: 1; stroke-linecap: round; font-family: Helvetica;">
      <line x1="467.35089" x2="480.45029" y1="342" y2="364.68884" id="line14988"/>
    </g>
    <g transform="matrix(4.10675, 0, 0, 4.10675, -1272.81, -1175.38)" id="g14990" style="font-size: 15px; stroke: black; stroke-width: 1; stroke-linecap: round; font-family: Helvetica;">
      <line x1="388.75439" x2="362.55554" y1="432.7554" y2="432.7554" id="line14992"/>
    </g>
    <g transform="matrix(4.10675, 0, 0, 4.10675, -1272.81, -1175.38)" id="g14994" style="font-size: 15px; stroke: black; stroke-width: 1; stroke-linecap: round; font-family: Helvetica;">
      <line x1="310.1579" x2="283.95908" y1="387.37772" y2="387.37772" id="line14996"/>
    </g>
    <text font-size="13pt" x="187.517" y="813.342" id="text14998" style="font-size: 66.7347px; fill: black; stroke-linecap: round; font-family: luxi sans;">O</text>
    <text font-size="13pt" x="360.513" y="720.165" id="text15000" style="font-size: 66.7347px; fill: black; stroke-linecap: round; font-family: luxi sans;">N</text>
    <text font-size="13pt" x="141.145" y="536.718" id="text15002" style="font-size: 66.7347px; fill: black; stroke-linecap: round; font-family: luxi sans;">S</text>
    <text font-size="13pt" x="520.676" y="440.632" id="text15004" style="font-size: 66.7347px; fill: black; stroke-linecap: round; font-family: luxi sans;">N</text>
    <text font-size="13pt" x="638.062" y="589.662" id="text15006" style="font-size: 66.7347px; fill: black; stroke-linecap: round; font-family: luxi sans;">O</text>
    <text font-size="13pt" x="768.454" y="533.81" id="text15008" style="font-size: 66.7347px; fill: black; stroke-linecap: round; font-family: luxi sans;">N</text>
    <text font-size="13pt" x="243.813" y="438.432" id="text15010" style="font-size: 66.7347px; fill: black; stroke-linecap: round; font-family: luxi sans;">HO</text>
    <text font-size="13pt" x="430.605" y="251.603" id="text15012" style="font-size: 56.3662px; fill: black; stroke-linecap: round; font-family: luxi sans;">H</text>
    <text font-size="13pt" x="718.078" y="252.88" id="text15014" style="font-size: 56.3662px; fill: black; stroke-linecap: round; font-family: luxi sans;">H</text>
    <text font-size="13pt" x="624.543" y="996.789" id="text15016" style="font-size: 66.7347px; fill: black; stroke-linecap: round; font-family: luxi sans;">OH</text>
    <text font-size="13pt" x="410.992" y="721.249" id="text15018" style="font-size: 66.7347px; fill: black; stroke-linecap: round; font-family: luxi sans;">H</text>
    <text font-size="13pt" x="794.98" y="480.149" id="text15020" style="font-size: 66.7347px; fill: black; stroke-linecap: round; font-family: luxi sans;">H</text>
    <g style="font-size: 15px; stroke: black; stroke-width: 1; stroke-linecap: round; font-family: Helvetica;" id="g15148" transform="matrix(4.10675, 0, 0, 4.10675, -1085.57, -1175.38)">
      <line id="line15150" y2="339.66946" y1="344.66452" x2="437.29453" x1="437.51721"/>
      <line id="line15152" y2="339.83649" y1="344.83151" x2="433.54834" x1="433.77103"/>
      <line id="line15154" y2="340.00348" y1="344.9985" x2="429.80215" x1="430.02484"/>
      <line id="line15156" y2="340.17047" y1="345.1655" x2="426.056" x1="426.27866"/>
    </g>
  </g>
</svg>